<?xml version="1.0" standalone="no"?><!DOCTYPE svg PUBLIC "-//W3C//DTD SVG 1.1//EN" "http://www.w3.org/Graphics/SVG/1.1/DTD/svg11.dtd"><svg width="200" height="200" viewBox="0 0 200 200" version="1.1" xmlns="http://www.w3.org/2000/svg" xmlns:xlink="http://www.w3.org/1999/xlink"><defs><style type="text/css"><![CDATA[
@font-face { font-family: ifont; src: url("http://at.alicdn.com/t/font_1442373896_4754455.eot?#iefix") format("embedded-opentype"), url("http://at.alicdn.com/t/font_1442373896_4754455.woff") format("woff"), url("http://at.alicdn.com/t/font_1442373896_4754455.ttf") format("truetype"), url("http://at.alicdn.com/t/font_1442373896_4754455.svg#ifont") format("svg"); }

]]></style></defs><g class="transform-group"><g transform="scale(0.1953125, 0.1953125)"><path d="M281.622 491.657c-2.207 0-3.948 0.319-5.313 0.865 1.855-0.558 3.835-0.865 5.871-0.865h-0.558zM891.028 734.459c0.057-1.126 0.205-2.23 0.444-3.299-0.261 0.49-0.398 1.536-0.444 3.299zM931.681 285.913c0.012-0.046 0.012-0.102 0.012-0.148v-0.524c0 0.227 0 0.455-0.012 0.671zM891.005 285.844c0 0.046 0 0.091 0.012 0.137-0.012-0.239-0.012-0.49-0.012-0.739v0.603zM915.539 895.92c-5.723-42.61-18.239-83.751-37.194-122.288-3.709-7.532-7.634-14.939-11.798-22.198-0.012-0.022-0.022-0.046-0.046-0.068-18.045-30.561-40.187-58.937-65.991-84.263l-0.012-0.012c-5.61-5.507-11.389-10.877-17.34-16.089-42.428-37.183-91.409-64.751-143.645-81.522 9.455-5.234 18.603-11.105 27.387-17.601 10.001-7.373 19.524-15.565 28.479-24.519 47.092-47.092 73.034-109.716 73.034-176.321 0-66.606-25.941-129.229-73.034-176.321-46.239-46.239-107.452-72.078-172.692-73.011-1.036-0.012-2.070-0.022-3.106-0.022-1.036 0-2.070 0.012-3.106 0.022-65.241 0.933-126.452 26.772-172.692 73.011-47.092 47.092-73.034 109.716-73.034 176.321 0 66.606 25.941 129.229 73.034 176.321 8.955 8.955 18.478 17.147 28.479 24.519 8.784 6.497 17.932 12.368 27.387 17.601-52.236 16.771-101.217 44.339-143.645 81.522-5.951 5.211-11.73 10.581-17.34 16.089-25.827 25.349-47.991 53.748-66.048 84.343-4.164 7.259-8.090 14.666-11.798 22.198-18.956 38.537-31.471 79.679-37.194 122.288-1.831 13.653 7.748 26.203 21.39 28.035 1.126 0.148 2.253 0.227 3.357 0.227 1.012 0 2.002-0.057 2.992-0.182 9.865-2.15 17.829-10.194 19.376-20.765 11.491-78.87 49.084-150.54 103.117-205.119 64.125-64.797 151.404-105.518 245.726-105.677h0.534c94.117 0.319 181.191 41.006 245.191 105.677 54.033 54.579 91.626 126.247 103.117 205.119 1.548 10.547 9.477 18.58 19.319 20.753 0.022 0 0.034 0.012 0.057 0.012 0.99 0.125 1.98 0.182 2.992 0.182 1.104 0 2.23-0.080 3.357-0.227 13.642-1.831 23.222-14.382 21.39-28.035zM519.046 550.525c-0.5 0-1.002 0-1.502-0.012-93.070-0.683-176.048-65.343-198.724-152.076-0.251-0.944-0.5-1.9-0.729-2.855-3.55-14.336-5.439-29.241-5.439-44.544 0-15.303 1.889-30.379 5.439-44.965 0.227-0.978 0.478-1.946 0.729-2.913 22.801-88.906 106.553-159.573 200.226-159.573h1.070c93.674 0 177.425 70.668 200.226 159.573 0.251 0.967 0.5 1.934 0.729 2.913 3.55 14.587 5.439 29.662 5.439 44.965 0 15.303-1.889 30.208-5.439 44.544-0.227 0.956-0.478 1.911-0.729 2.855-22.676 86.733-105.654 151.393-198.724 152.076-0.853 0.012-1.707 0.012-2.572 0.012z" fill="#ecf0f1"></path></g></g></svg>