<?xml version="1.0" standalone="no"?><!DOCTYPE svg PUBLIC "-//W3C//DTD SVG 1.1//EN" "http://www.w3.org/Graphics/SVG/1.1/DTD/svg11.dtd"><svg width="200" height="200" viewBox="0 0 200 200" version="1.1" xmlns="http://www.w3.org/2000/svg" xmlns:xlink="http://www.w3.org/1999/xlink"><defs><style type="text/css"><![CDATA[
@font-face { font-family: ifont; src: url("http://at.alicdn.com/t/font_1442373896_4754455.eot?#iefix") format("embedded-opentype"), url("http://at.alicdn.com/t/font_1442373896_4754455.woff") format("woff"), url("http://at.alicdn.com/t/font_1442373896_4754455.ttf") format("truetype"), url("http://at.alicdn.com/t/font_1442373896_4754455.svg#ifont") format("svg"); }

]]></style></defs><g class="transform-group"><g transform="scale(0.1953125, 0.1953125)"><path d="M249.881 488.854c-2.511 0-4.492 0.363-6.045 0.985 2.111-0.635 4.364-0.985 6.679-0.985h-0.635zM943.25 765.109c0.065-1.281 0.234-2.538 0.506-3.754-0.297 0.558-0.453 1.747-0.506 3.754zM989.504 254.764c0.014-0.052 0.014-0.116 0.014-0.169v-0.596c0 0.258 0 0.517-0.014 0.764zM943.223 254.685c0 0.052 0 0.103 0.014 0.156-0.014-0.272-0.014-0.558-0.014-0.841v0.686zM971.138 948.816c-6.512-48.481-20.752-95.29-42.319-139.137-4.22-8.57-8.686-16.997-13.424-25.257-0.014-0.025-0.025-0.052-0.052-0.078-20.531-34.771-45.724-67.057-75.083-95.873l-0.014-0.014c-6.383-6.266-12.958-12.375-19.729-18.306-48.274-42.306-104.003-73.673-163.436-92.754 10.757-5.955 21.166-12.635 31.161-20.026 11.379-8.389 22.214-17.71 32.403-27.898 53.58-53.58 83.097-124.832 83.097-200.614 0-75.782-29.515-147.034-83.097-200.614-52.61-52.61-122.256-82.009-196.485-83.070-1.179-0.014-2.355-0.025-3.534-0.025-1.179 0-2.355 0.014-3.534 0.025-74.229 1.061-143.874 30.461-196.485 83.070-53.58 53.58-83.097 124.832-83.097 200.614 0 75.782 29.515 147.034 83.097 200.614 10.189 10.189 21.024 19.509 32.403 27.898 9.995 7.392 20.402 14.073 31.161 20.026-59.433 19.082-115.163 50.448-163.436 92.754-6.771 5.929-13.346 12.038-19.729 18.306-29.386 28.842-54.603 61.153-75.148 95.964-4.738 8.259-9.204 16.687-13.424 25.257-21.568 43.846-35.807 90.657-42.319 139.137-2.083 15.534 8.816 29.813 24.337 31.898 1.281 0.169 2.563 0.258 3.82 0.258 1.151 0 2.277-0.065 3.404-0.207 11.225-2.446 20.286-11.599 22.046-23.626 13.074-89.737 55.846-171.281 117.324-233.38 72.96-73.725 172.265-120.057 279.582-120.237h0.608c107.084 0.363 206.155 46.656 278.973 120.237 61.477 62.099 104.25 143.641 117.324 233.38 1.761 12 10.783 21.14 21.981 23.613 0.025 0 0.038 0.014 0.065 0.014 1.126 0.142 2.253 0.207 3.404 0.207 1.257 0 2.538-0.091 3.82-0.258 15.521-2.083 26.421-16.364 24.337-31.898zM520.017 555.833c-0.569 0-1.14 0-1.709-0.014-105.893-0.778-200.304-74.346-226.103-173.028-0.286-1.074-0.569-2.162-0.83-3.248-4.039-16.311-6.189-33.269-6.189-50.682 0-17.411 2.149-34.564 6.189-51.161 0.258-1.113 0.544-2.214 0.83-3.314 25.942-101.155 121.234-181.558 227.812-181.558h1.217c106.58 0 201.87 80.404 227.812 181.558 0.286 1.1 0.569 2.201 0.83 3.314 4.039 16.596 6.189 33.748 6.189 51.161 0 17.411-2.149 34.37-6.189 50.682-0.258 1.088-0.544 2.174-0.83 3.248-25.801 98.683-120.211 172.252-226.103 173.028-0.971 0.014-1.942 0.014-2.926 0.014z" fill="#272636"></path></g></g></svg>