<?xml version="1.0" standalone="no"?><!DOCTYPE svg PUBLIC "-//W3C//DTD SVG 1.1//EN" "http://www.w3.org/Graphics/SVG/1.1/DTD/svg11.dtd"><svg width="200" height="200" viewBox="0 0 200 200" version="1.1" xmlns="http://www.w3.org/2000/svg" xmlns:xlink="http://www.w3.org/1999/xlink"><defs><style type="text/css"><![CDATA[
@font-face { font-family: ifont; src: url("http://at.alicdn.com/t/font_1442373896_4754455.eot?#iefix") format("embedded-opentype"), url("http://at.alicdn.com/t/font_1442373896_4754455.woff") format("woff"), url("http://at.alicdn.com/t/font_1442373896_4754455.ttf") format("truetype"), url("http://at.alicdn.com/t/font_1442373896_4754455.svg#ifont") format("svg"); }

]]></style></defs><g class="transform-group"><g transform="scale(0.1953125, 0.1953125)"><path d="M201.335495 603.006713c1.973958 0 3.974521-0.193405 5.979178-0.581238 16.999163-3.285836 28.115338-19.723204 24.830525-36.722366-3.382027-17.529235-5.102205-35.599799-5.102205-53.701063 0-90.140996 42.502-170.541141 108.514459-222.223221 5.633301 15.357779 15.283078 31.56695 31.639604 37.693484 2.657526 0.99977 5.142114 2.004657 7.540743 2.969635 12.81077 5.157463 26.059516 10.499122 48.323589 10.499122 0.061398 0 0.122797 0 0.184195 0 3.622504 0.714268 11.555174 8.121981 17.202801 15.7231 2.918469 15.396665 6.367011 36.793998 6.367011 44.895513 0 12.713556 2.325975 26.794249 4.377704 39.222303 0.907673 5.478781 1.795902 10.80509 2.407839 15.683191 1.520633 12.172227 9.453303 21.63167 20.692275 24.682146 2.729158 0.744967 5.336542 1.102101 7.856945 1.102101 17.472953 0 30.66644-17.131169 49.415456-41.48688 3.566222-4.64274 8.335852-10.835789 10.494005-13.243629 1.209548-0.806365 2.734274-1.683339 4.397147-2.693342 12.805654-7.744381 34.242895-20.702508 37.508265-43.527352 1.096984-7.642051 0.887206-19.284205 0.459464-37.660738-0.234337-9.923-0.596588-25.391297-0.163729-33.349549 5.300726-4.427846 16.457834-11.943007 27.100218-18.192338l53.429887-15.028275c54.399981 36.07052 96.261391 90.635253 115.26828 155.963121 4.836145 16.631796 22.223141 26.172079 38.84982 21.345144 16.621563-4.836145 26.177196-22.233374 21.340027-38.854936-42.532699-146.204873-178.687682-248.315482-331.101977-248.315482-190.121082 0-344.794837 154.678872-344.794837 344.799954 0 22.079878 2.101871 44.150546 6.244214 65.598021C173.49031 592.589456 186.617281 603.006713 201.335495 603.006713zM593.370239 242.907309c-1.805112 0.561795-3.545756 1.306762-5.187139 2.240017-45.461401 25.916253-50.782593 39.222303-52.782134 44.222177-3.872191 9.668197-3.954055 23.610744-3.203972 55.491849 0.193405 8.438183 0.479931 20.49887 0.24457 26.426883-2.99931 2.775206-9.606799 6.77531-13.019525 8.836249-3.877307 2.346441-7.254218 4.468778-9.596566 6.223748-3.361561 2.51017-6.453992 5.825682-10.866489 11.285021-0.852414-18.407232-6.984065-49.854455-8.284687-56.373938-0.617054-3.091408-1.795902-6.045693-3.469008-8.723685-4.571109-7.315616-29.125341-43.808762-63.537082-43.808762-12.672624 0-18.621103-2.39249-29.416983-6.744611-1.938142-0.780783-3.928472-1.582031-6.009877-2.387373-2.240017-3.462868-5.04183-11.425214-6.77531-19.108197 38.359656-19.553335 81.755002-30.592762 127.680984-30.592762C538.211988 229.892901 566.552453 234.43331 593.370239 242.907309zM957.527053 409.325549c-5.478781-23.600511-25.946952-40.752146-60.812017-50.986231-13.866822-4.080945-28.360931 3.856841-32.42141 17.703197-4.060479 13.846356 3.867074 28.355815 17.708314 32.416294 21.097504 6.193049 24.589025 12.619412 24.620747 12.621459 1.638313 21.585621-111.772666 105.686041-377.078101 167.325913-265.38116 61.669548-404.239717 36.129872-412.218436 16.172331-0.005117-0.081864 0.341784-8.866948 21.360494-26.549679 11.040451-9.28548 12.458753-25.76378 3.173273-36.804231-9.290597-11.050684-25.76378-12.479219-36.804231-3.173273-31.544437 26.539446-44.538379 52.884464-38.624692 78.291111 8.885368 38.231743 55.085596 58.750055 140.971685 62.454424 0.314155 0.663102 0.64366 1.321088 1.00898 1.970888 61.047378 108.574834 176.284959 176.030156 300.736389 176.030156 183.829795 0 334.733691-143.290497 344.29751-326.523705C932.524612 488.061798 966.605825 448.414823 957.527053 409.325549zM496.471328 793.812387l24.594141-20.357654 43.547819-5.030573c8.535397-0.989537 16.039301-6.101975 20.075221-13.69286l9.402137-17.703197 8.90788 18.294668-6.009877 24.898063c-27.662013 9.018398-57.192583 13.885242-87.840604 13.885242C504.907465 794.107099 500.682233 794.002722 496.471328 793.812387zM656.68424 752.652965c0.049119-4.03899-0.816598-8.06263-2.607384-11.746532l-35.471886-72.913637c-4.300956-8.836249-13.198603-14.509459-23.024389-14.69263-10.06524-0.061398-18.921955 5.183046-23.533996 13.866822l-27.059286 50.935066-37.604456 4.347005c-5.02034 0.581238-9.764388 2.602268-13.662161 5.825682l-57.149605 47.303352c-2.540869 2.101871-4.576225 4.587482-6.102998 7.300266-59.482743-17.325597-112.223944-53.952796-149.262512-104.638175 76.699869-3.872191 167.07725-17.317411 260.160251-38.938847 90.823542-21.106714 175.904289-48.055482 245.520833-77.534887C772.558317 642.825604 723.913411 711.457728 656.68424 752.652965z" fill="#a9b7b7"></path></g></g></svg>