<?xml version="1.0" standalone="no"?><!DOCTYPE svg PUBLIC "-//W3C//DTD SVG 1.1//EN" "http://www.w3.org/Graphics/SVG/1.1/DTD/svg11.dtd"><svg width="200" height="200" viewBox="0 0 200 200" version="1.1" xmlns="http://www.w3.org/2000/svg" xmlns:xlink="http://www.w3.org/1999/xlink"><defs><style type="text/css"><![CDATA[
@font-face { font-family: ifont; src: url("http://at.alicdn.com/t/font_1442373896_4754455.eot?#iefix") format("embedded-opentype"), url("http://at.alicdn.com/t/font_1442373896_4754455.woff") format("woff"), url("http://at.alicdn.com/t/font_1442373896_4754455.ttf") format("truetype"), url("http://at.alicdn.com/t/font_1442373896_4754455.svg#ifont") format("svg"); }

]]></style></defs><g class="transform-group"><g transform="scale(0.1953125, 0.1953125)"><path d="M51.944046 739.88722c-9.896394 0-19.203364-3.855818-26.206872-10.860349-14.443967-14.44806-14.443967-37.959543 0.001023-52.408627l460.052884-459.998649c7.004531-7.004531 16.311501-10.862395 26.206872-10.862395 9.895371 0 19.202341 3.857864 26.205848 10.861372l460.053907 460.002742c14.449084 14.44806 14.449084 37.956474 0 52.405557-6.857175 6.857175-16.163121 10.633175-26.201755 10.633175-0.001023 0-0.001023 0-0.001023 0-10.041704 0-19.346627-3.776-26.203802-10.633175L511.997953 295.233048 78.150918 729.024825C71.146387 736.031403 61.839417 739.88722 51.944046 739.88722z" fill="#a9b7b7"></path></g></g></svg>